<?xml version="1.0" encoding="utf-8"?><!-- Uploaded to: SVG Repo, www.svgrepo.com, Generator: SVG Repo Mixer Tools -->
<svg width="800px" height="800px" viewBox="0 0 24 24" id="_24x24_On_Light_Media" data-name="24x24/On Light/Media" xmlns="http://www.w3.org/2000/svg">
  <rect id="view-box" width="24" height="24" fill="none"/>
  <path id="Shape" d="M4.466,19.5a2.737,2.737,0,0,1-2.718-2.332L.009,5.864A.75.75,0,0,1,.751,5h.3a2.444,2.444,0,0,1,.474-2.075,2.551,2.551,0,0,1,2.369-.87A2.416,2.416,0,0,1,5.6.382,2.6,2.6,0,0,1,7.961.945,2.561,2.561,0,0,1,10.5.076a2.281,2.281,0,0,1,1.724,1.762A2.513,2.513,0,0,1,14.4,3.5,2.63,2.63,0,0,1,14.468,5h.283a.75.75,0,0,1,.742.864l-1.74,11.3A2.735,2.735,0,0,1,11.034,19.5ZM11.034,18A1.243,1.243,0,0,0,12.27,16.94L13.876,6.5H11.012L10.489,18ZM8.988,18,9.51,6.5H5.989L6.512,18ZM3.23,16.94A1.244,1.244,0,0,0,4.466,18H5.01L4.488,6.5H1.625ZM12.905,5A1.465,1.465,0,0,0,13,4.04c-.207-.54-.606-.766-1.378-.725a.75.75,0,0,1-.789-.714c-.031-.661-.242-.956-.695-1.072s-.925.146-1.5.949a.751.751,0,0,1-1.174.057c-.55-.628-1.016-.823-1.47-.7-.438.117-.694.467-.788,1.212a.751.751,0,0,1-.975.618C3.466,3.417,3,3.51,2.661,3.9A1.221,1.221,0,0,0,2.578,5Z" transform="translate(4.25 2.251)" fill="#141124"/>
</svg>